<?xml version="1.0" encoding="utf-8"?>
<!-- Generator: Adobe Illustrator 22.1.0, SVG Export Plug-In . SVG Version: 6.00 Build 0)  -->
<svg version="1.1" id="Layer_1" xmlns="http://www.w3.org/2000/svg" xmlns:xlink="http://www.w3.org/1999/xlink" x="0px" y="0px"
	 viewBox="0 0 32 32" style="enable-background:new 0 0 32 32;" xml:space="preserve">
<style type="text/css">
	.st0{fill:#FFFFFF;}
	.st1{opacity:0.8;fill:#8F00FF;}
	.st2{opacity:0.8;fill:#FFEC00;}
	.st3{opacity:0.8;}
	.st4{fill:#0099FF;}
	.st5{opacity:0.8;fill:#33CC33;}
	.st6{fill:#FF0068;}
	.st7{opacity:0.8;fill:#FF9933;}
</style>
<g>
	<path class="st0" d="M15.7,8.6c0.1,0.2,0.2,0.4,0.3,0.5c0,0,0,0,0,0c0,0,0,0,0,0c0.1-0.2,0.1-0.4,0.3-0.5c0.8-1.1,2.5-1.4,4.9-0.5
		c-1.1-3.3-3.1-4.5-5.3-4.5c-2.2,0-4.2,1.2-5.2,4.5C13.2,7.2,14.9,7.5,15.7,8.6z"/>
	<path class="st0" d="M15.9,9.1c1.9,0,3.4,2.9,3.4,9.1c0.1,6.1-1.4,10.1-3.3,10.1c-1.9,0-3.4-3.9-3.5-10.1S14,9.2,15.9,9.1z"/>
	<g>
		<path class="st0" d="M16.3,8.6c-1.1,1.7,0.2,4.6,4.9,7.7s8.6,3.9,9.8,2.3s-1-5.1-5.6-8.3S17.4,6.9,16.3,8.6z"/>
	</g>
	<path class="st0" d="M16.1,9c-1.6,0.9-1.8,3.8,0.7,8.4s5.4,6.9,7.1,6s1.3-4.6-1.1-9.2S17.8,8.1,16.1,9z"/>
	<g>
		<path class="st0" d="M15.7,8.6c1.1,1.7-0.2,4.6-4.9,7.7s-8.6,3.9-9.8,2.3s1-5.1,5.6-8.3S14.6,6.9,15.7,8.6z"/>
	</g>
	<path class="st0" d="M15.8,9c1.6,0.9,1.8,3.8-0.7,8.4s-5.4,6.9-7.1,6s-1.3-4.6,1.1-9.2S14.2,8.1,15.8,9z"/>
</g>
<g>
	<path class="st1" d="M15.7,8.6c0.1,0.2,0.2,0.4,0.3,0.5c0,0,0,0,0,0c0,0,0,0,0,0c0.1-0.2,0.1-0.4,0.3-0.5c0.8-1.1,2.5-1.4,4.9-0.5
		c-1.1-3.3-3.1-4.5-5.3-4.5c-2.2,0-4.2,1.2-5.2,4.5C13.2,7.2,14.9,7.5,15.7,8.6z"/>
	<path class="st2" d="M15.9,9.1c1.9,0,3.4,2.9,3.4,9.1c0.1,6.1-1.4,10.1-3.3,10.1c-1.9,0-3.4-3.9-3.5-10.1S14,9.2,15.9,9.1z"/>
	<g class="st3">
		<path class="st4" d="M16.3,8.6c-1.1,1.7,0.2,4.6,4.9,7.7s8.6,3.9,9.8,2.3s-1-5.1-5.6-8.3S17.4,6.9,16.3,8.6z"/>
	</g>
	<path class="st5" d="M16.1,9c-1.6,0.9-1.8,3.8,0.7,8.4s5.4,6.9,7.1,6s1.3-4.6-1.1-9.2S17.8,8.1,16.1,9z"/>
	<g class="st3">
		<path class="st6" d="M15.7,8.6c1.1,1.7-0.2,4.6-4.9,7.7s-8.6,3.9-9.8,2.3s1-5.1,5.6-8.3S14.6,6.9,15.7,8.6z"/>
	</g>
	<path class="st7" d="M15.8,9c1.6,0.9,1.8,3.8-0.7,8.4s-5.4,6.9-7.1,6s-1.3-4.6,1.1-9.2S14.2,8.1,15.8,9z"/>
</g>
</svg>
